<svg width="36" height="36" viewBox="0 0 36 36" fill="none" xmlns="http://www.w3.org/2000/svg">
    <path d="M30.3371 5.97189H28.9984V4.22314C28.993 3.70339 28.7827 3.20677 28.4133 2.84115C28.0438 2.47553 27.545 2.27045 27.0252 2.27046C26.5055 2.27047 26.0067 2.47556 25.6372 2.84119C25.2678 3.20682 25.0575 3.70345 25.0521 4.2232V5.97189H20.0193V4.22314C20.0193 3.69983 19.8114 3.19796 19.4414 2.82792C19.0713 2.45788 18.5695 2.25 18.0462 2.25C17.5228 2.25 17.021 2.45788 16.6509 2.82792C16.2809 3.19796 16.073 3.69983 16.073 4.22314V5.97189H11.0402V4.22314C11.0402 3.69983 10.8323 3.19796 10.4623 2.82792C10.0922 2.45788 9.59036 2.25 9.06705 2.25C8.54374 2.25 8.04186 2.45788 7.67183 2.82792C7.30179 3.19796 7.09391 3.69983 7.09391 4.22314V5.97189H5.66291C4.86673 5.97577 4.1046 6.29527 3.54367 6.86031C2.98275 7.42536 2.66883 8.18981 2.67079 8.98599V30.7359C2.66883 31.5321 2.98275 32.2965 3.54367 32.8616C4.1046 33.4266 4.86673 33.7461 5.66291 33.75H30.3371C31.1333 33.7461 31.8954 33.4266 32.4564 32.8616C33.0173 32.2965 33.3312 31.5321 33.3293 30.7359V8.98599C33.3312 8.18981 33.0173 7.42535 32.4564 6.8603C31.8954 6.29526 31.1333 5.97576 30.3371 5.97189ZM26.1771 4.22314C26.1807 4.00053 26.2716 3.78824 26.4303 3.63207C26.5889 3.4759 26.8027 3.38837 27.0253 3.38838C27.2479 3.38838 27.4616 3.47592 27.6203 3.6321C27.779 3.78827 27.8699 4.00057 27.8734 4.22318V5.97189H26.1771V4.22314ZM17.198 4.22314C17.2015 4.00053 17.2925 3.78824 17.4511 3.63207C17.6098 3.4759 17.8235 3.38837 18.0462 3.38838C18.2688 3.38838 18.4825 3.47592 18.6412 3.6321C18.7999 3.78827 18.8908 4.00057 18.8943 4.22318V5.97189H17.198V4.22314ZM8.21888 4.22314C8.22242 4.00053 8.31334 3.78824 8.47201 3.63207C8.63069 3.4759 8.84441 3.38837 9.06704 3.38838C9.28968 3.38838 9.50339 3.47592 9.66206 3.6321C9.82073 3.78827 9.91164 4.00057 9.91517 4.22318V5.97189H8.21888V4.22314ZM5.66288 7.09689H7.09388V8.18509C7.09607 8.499 7.17273 8.80791 7.31758 9.08642C7.46243 9.36492 7.67131 9.60506 7.92707 9.7871C8.18282 9.96914 8.47812 10.0879 8.78871 10.1335C9.09929 10.1792 9.41627 10.1505 9.71359 10.0497C9.85207 9.99902 9.9651 9.89596 10.0283 9.76274C10.0916 9.62952 10.1 9.47679 10.0517 9.33744C10.0035 9.19809 9.90242 9.08326 9.77033 9.01768C9.63824 8.95211 9.48568 8.94102 9.3455 8.98683C9.21765 9.03007 9.08136 9.04237 8.94784 9.02272C8.81431 9.00306 8.68735 8.95201 8.57738 8.87375C8.46742 8.7955 8.37759 8.69227 8.31527 8.57255C8.25295 8.45284 8.21992 8.32004 8.21889 8.18508V7.09689H16.073V8.18509C16.0736 8.70822 16.2816 9.20976 16.6516 9.57968C17.0215 9.94959 17.523 10.1577 18.0461 10.1582C18.5305 10.1823 19.24 9.94331 19.0404 9.33394C19.0162 9.26414 18.9785 9.19979 18.9294 9.14457C18.8804 9.08934 18.8209 9.04433 18.7544 9.01209C18.688 8.97985 18.6158 8.96103 18.542 8.95669C18.4683 8.95236 18.3944 8.96259 18.3246 8.98681C18.1968 9.0301 18.0605 9.04243 17.9269 9.02279C17.7934 9.00315 17.6664 8.9521 17.5565 8.87384C17.4465 8.79558 17.3566 8.69234 17.2943 8.5726C17.232 8.45287 17.199 8.32005 17.198 8.18508V7.09689H25.0521V8.18509C25.0543 8.49901 25.131 8.80793 25.2758 9.08644C25.4206 9.36496 25.6295 9.60511 25.8853 9.78715C26.141 9.96919 26.4364 10.0879 26.7469 10.1336C27.0575 10.1792 27.3745 10.1505 27.6718 10.0497C27.8103 9.99901 27.9233 9.89595 27.9866 9.76273C28.0498 9.62951 28.0582 9.47679 28.0099 9.33745C27.9617 9.1981 27.8606 9.08328 27.7285 9.01771C27.5965 8.95213 27.4439 8.94104 27.3037 8.98683C27.1759 9.03014 27.0396 9.04248 26.906 9.02285C26.7725 9.00322 26.6455 8.95217 26.5355 8.87391C26.4255 8.79564 26.3357 8.69239 26.2734 8.57264C26.2111 8.45289 26.1781 8.32006 26.1771 8.18508V7.09689H30.3371C30.835 7.10038 31.3113 7.30123 31.6613 7.65538C32.0113 8.00953 32.2066 8.48806 32.2043 8.98599V11.818C32.1213 11.7665 32.0261 11.7381 31.9285 11.7359L3.79579 11.7653V8.98599C3.79345 8.48806 3.98872 8.00953 4.33874 7.65539C4.68877 7.30124 5.16496 7.10039 5.66288 7.09689ZM30.3371 32.625H5.66291C5.16498 32.6215 4.68877 32.4207 4.33874 32.0665C3.98872 31.7124 3.79345 31.2338 3.79579 30.7359V12.8903L31.9296 12.8609C32.0268 12.8585 32.1216 12.8301 32.2043 12.7789V30.7359C32.2066 31.2338 32.0113 31.7124 31.6613 32.0665C31.3113 32.4207 30.835 32.6215 30.3371 32.625Z" fill="black"/>
    <path d="M11.2857 15.4715H7.65637C7.5825 15.4715 7.50934 15.486 7.44109 15.5143C7.37284 15.5425 7.31082 15.584 7.25858 15.6362C7.20634 15.6884 7.16491 15.7505 7.13665 15.8187C7.10839 15.887 7.09385 15.9601 7.09387 16.034V19.3123C7.09385 19.3862 7.10839 19.4593 7.13665 19.5276C7.16491 19.5959 7.20634 19.6579 7.25858 19.7101C7.31082 19.7623 7.37284 19.8038 7.44109 19.832C7.50934 19.8603 7.5825 19.8748 7.65637 19.8748H11.2857C11.3596 19.8748 11.4327 19.8603 11.501 19.832C11.5692 19.8038 11.6313 19.7623 11.6835 19.7101C11.7357 19.6579 11.7772 19.5959 11.8054 19.5276C11.8337 19.4593 11.8482 19.3862 11.8482 19.3123V16.034C11.8482 15.9601 11.8337 15.887 11.8054 15.8187C11.7772 15.7505 11.7357 15.6884 11.6835 15.6362C11.6313 15.584 11.5692 15.5425 11.501 15.5143C11.4327 15.486 11.3596 15.4715 11.2857 15.4715ZM10.7232 18.7498H8.21887V16.5965H10.7232V18.7498Z" fill="black"/>
    <path d="M19.2673 15.4715H15.6379C15.5641 15.4715 15.4909 15.486 15.4227 15.5143C15.3544 15.5425 15.2924 15.584 15.2401 15.6362C15.1879 15.6884 15.1465 15.7505 15.1182 15.8187C15.09 15.887 15.0754 15.9601 15.0754 16.034V19.3123C15.0754 19.3862 15.09 19.4593 15.1182 19.5276C15.1465 19.5959 15.1879 19.6579 15.2401 19.7101C15.2924 19.7623 15.3544 19.8038 15.4227 19.832C15.4909 19.8603 15.5641 19.8748 15.6379 19.8748H19.2673C19.3411 19.8748 19.4143 19.8603 19.4826 19.832C19.5508 19.8038 19.6128 19.7623 19.6651 19.7101C19.7173 19.6579 19.7587 19.5959 19.787 19.5276C19.8153 19.4593 19.8298 19.3862 19.8298 19.3123V16.034C19.8298 15.9601 19.8153 15.887 19.787 15.8187C19.7587 15.7505 19.7173 15.6884 19.6651 15.6362C19.6128 15.584 19.5508 15.5425 19.4826 15.5143C19.4143 15.486 19.3411 15.4715 19.2673 15.4715ZM18.7048 18.7498H16.2004V16.5965H18.7048V18.7498Z" fill="black"/>
    <path d="M27.2489 15.4715H23.619C23.5451 15.4715 23.472 15.486 23.4037 15.5143C23.3355 15.5425 23.2735 15.584 23.2212 15.6362C23.169 15.6884 23.1276 15.7505 23.0993 15.8187C23.071 15.887 23.0565 15.9601 23.0565 16.034V19.3123C23.0565 19.3862 23.071 19.4593 23.0993 19.5276C23.1276 19.5959 23.169 19.6579 23.2212 19.7101C23.2735 19.7623 23.3355 19.8038 23.4037 19.832C23.472 19.8603 23.5451 19.8748 23.619 19.8748H27.2489C27.3228 19.8748 27.3959 19.8603 27.4642 19.832C27.5324 19.8038 27.5945 19.7623 27.6467 19.7101C27.6989 19.6579 27.7404 19.5959 27.7686 19.5276C27.7969 19.4593 27.8114 19.3862 27.8114 19.3123V16.034C27.8114 15.9601 27.7969 15.887 27.7686 15.8187C27.7404 15.7505 27.6989 15.6884 27.6467 15.6362C27.5945 15.584 27.5324 15.5425 27.4642 15.5143C27.3959 15.486 27.3228 15.4715 27.2489 15.4715ZM26.6864 18.7498H24.1815V16.5965H26.6864V18.7498Z" fill="black"/>
    <path d="M11.2857 23.4531H7.65637C7.5825 23.453 7.50934 23.4676 7.44109 23.4958C7.37283 23.5241 7.31082 23.5655 7.25858 23.6178C7.20634 23.67 7.16491 23.732 7.13665 23.8003C7.10839 23.8685 7.09385 23.9417 7.09387 24.0156V27.2939C7.09385 27.3678 7.10839 27.4409 7.13665 27.5092C7.16491 27.5774 7.20634 27.6394 7.25858 27.6917C7.31082 27.7439 7.37283 27.7853 7.44109 27.8136C7.50934 27.8419 7.5825 27.8564 7.65637 27.8564H11.2857C11.3596 27.8564 11.4327 27.8419 11.501 27.8136C11.5692 27.7853 11.6313 27.7439 11.6835 27.6917C11.7357 27.6394 11.7772 27.5774 11.8054 27.5092C11.8337 27.4409 11.8482 27.3678 11.8482 27.2939V24.0156C11.8482 23.9417 11.8337 23.8685 11.8054 23.8003C11.7772 23.732 11.7357 23.67 11.6835 23.6178C11.6313 23.5655 11.5692 23.5241 11.501 23.4958C11.4327 23.4676 11.3596 23.453 11.2857 23.4531ZM10.7232 26.7314H8.21887V24.5781H10.7232V26.7314Z" fill="black"/>
    <path d="M19.2673 23.4531H15.6379C15.5641 23.453 15.4909 23.4676 15.4227 23.4958C15.3544 23.5241 15.2924 23.5655 15.2401 23.6178C15.1879 23.67 15.1465 23.732 15.1182 23.8003C15.09 23.8685 15.0754 23.9417 15.0754 24.0156V27.2939C15.0754 27.3678 15.09 27.4409 15.1182 27.5092C15.1465 27.5774 15.1879 27.6394 15.2401 27.6917C15.2924 27.7439 15.3544 27.7853 15.4227 27.8136C15.4909 27.8419 15.5641 27.8564 15.6379 27.8564H19.2673C19.3411 27.8564 19.4143 27.8419 19.4826 27.8136C19.5508 27.7853 19.6128 27.7439 19.6651 27.6917C19.7173 27.6394 19.7587 27.5774 19.787 27.5092C19.8153 27.4409 19.8298 27.3678 19.8298 27.2939V24.0156C19.8298 23.9417 19.8153 23.8685 19.787 23.8003C19.7587 23.732 19.7173 23.67 19.6651 23.6178C19.6128 23.5655 19.5508 23.5241 19.4826 23.4958C19.4143 23.4676 19.3411 23.453 19.2673 23.4531ZM18.7048 26.7314H16.2004V24.5781H18.7048V26.7314Z" fill="black"/>
    <path d="M27.2489 23.4531H23.619C23.5451 23.453 23.472 23.4676 23.4037 23.4958C23.3355 23.5241 23.2735 23.5655 23.2212 23.6178C23.169 23.67 23.1276 23.732 23.0993 23.8003C23.071 23.8685 23.0565 23.9417 23.0565 24.0156V27.2939C23.0565 27.3678 23.071 27.4409 23.0993 27.5092C23.1276 27.5774 23.169 27.6394 23.2212 27.6917C23.2735 27.7439 23.3355 27.7853 23.4037 27.8136C23.472 27.8419 23.5451 27.8564 23.619 27.8564H27.2489C27.3228 27.8564 27.3959 27.8419 27.4642 27.8136C27.5324 27.7853 27.5945 27.7439 27.6467 27.6917C27.6989 27.6394 27.7404 27.5774 27.7686 27.5092C27.7969 27.4409 27.8114 27.3678 27.8114 27.2939V24.0156C27.8114 23.9417 27.7969 23.8685 27.7686 23.8003C27.7404 23.732 27.6989 23.67 27.6467 23.6178C27.5945 23.5655 27.5324 23.5241 27.4642 23.4958C27.3959 23.4676 27.3228 23.453 27.2489 23.4531ZM26.6864 26.7314H24.1815V24.5781H26.6864V26.7314Z" fill="black"/>
</svg>
