<svg width="36" height="36" viewBox="0 0 36 36" fill="none" xmlns="http://www.w3.org/2000/svg">
    <g clip-path="url(#clip0_1_164)">
        <path d="M34.1719 32.0832H32.927V9.84417C32.927 9.22388 32.4224 8.71917 31.802 8.71917H25.7529V6.35527C25.7529 5.73497 25.2482 5.23027 24.6279 5.23027H22.9036V3.98545C22.9036 3.36516 22.3989 2.86045 21.7786 2.86045H18.4219V1.125C18.4219 0.892055 18.2329 0.703125 18 0.703125C17.7671 0.703125 17.5781 0.892055 17.5781 1.125V2.86045H14.2214C13.6011 2.86045 13.0964 3.36516 13.0964 3.98545V5.23027H11.3721C10.7518 5.23027 10.2471 5.73497 10.2471 6.35527V8.71917H4.19801C3.57771 8.71917 3.07301 9.22388 3.07301 9.84417V32.0832H1.82812C1.20783 32.0832 0.703125 32.5879 0.703125 33.2082V34.1719C0.703125 34.7922 1.20783 35.2969 1.82812 35.2969H34.1719C34.7922 35.2969 35.2969 34.7922 35.2969 34.1719V33.2082C35.2969 32.5879 34.7922 32.0832 34.1719 32.0832ZM31.8021 9.56292C31.9572 9.56292 32.0833 9.68906 32.0833 9.84417V32.0832H25.7529V9.56292H31.8021ZM13.9402 3.98545C13.9402 3.83034 14.0663 3.7042 14.2214 3.7042H21.7787C21.9338 3.7042 22.0599 3.83034 22.0599 3.98545V5.23027H13.9402V3.98545ZM11.3721 6.07402H24.6279C24.783 6.07402 24.9092 6.20016 24.9092 6.35527V32.0832H23.3131V24.7171C23.3131 24.4841 23.1242 24.2952 22.8912 24.2952H13.1089C12.8759 24.2952 12.687 24.4841 12.687 24.7171V32.0832H11.0909V6.35527C11.0909 6.20016 11.217 6.07402 11.3721 6.07402ZM13.5307 32.0832V25.139H17.5781V32.0832H13.5307ZM18.4219 25.139H22.4693V32.0832H18.4219V25.139ZM3.91676 9.84417C3.91676 9.68906 4.0429 9.56292 4.19801 9.56292H10.2471V32.0832H3.91676V9.84417ZM34.4531 34.1719C34.4531 34.327 34.327 34.4531 34.1719 34.4531H1.82812C1.67302 34.4531 1.54688 34.327 1.54688 34.1719V33.2082C1.54688 33.0531 1.67302 32.927 1.82812 32.927H34.1719C34.327 32.927 34.4531 33.0531 34.4531 33.2082V34.1719ZM8.30187 16.5072H5.86202C5.62908 16.5072 5.44015 16.6961 5.44015 16.9291V19.3689C5.44015 19.6019 5.62908 19.7908 5.86202 19.7908H8.30187C8.53481 19.7908 8.72374 19.6019 8.72374 19.3689V16.9291C8.72374 16.6961 8.53481 16.5072 8.30187 16.5072ZM7.87999 18.947H6.2839V17.3509H7.87999V18.947ZM8.30187 27.2036H5.86202C5.62908 27.2036 5.44015 27.3926 5.44015 27.6255V30.0653C5.44015 30.2982 5.62908 30.4871 5.86202 30.4871H8.30187C8.53481 30.4871 8.72374 30.2982 8.72374 30.0653V27.6255C8.72374 27.3925 8.53481 27.2036 8.30187 27.2036ZM7.87999 29.6434H6.2839V28.0474H7.87999V29.6434ZM8.30187 21.8554H5.86202C5.62908 21.8554 5.44015 22.0443 5.44015 22.2773V24.7171C5.44015 24.95 5.62908 25.139 5.86202 25.139H8.30187C8.53481 25.139 8.72374 24.95 8.72374 24.7171V22.2773C8.72374 22.0443 8.53481 21.8554 8.30187 21.8554ZM7.87999 24.2952H6.2839V22.6991H7.87999V24.2952ZM8.30187 11.159H5.86202C5.62908 11.159 5.44015 11.3479 5.44015 11.5809V14.0207C5.44015 14.2536 5.62908 14.4425 5.86202 14.4425H8.30187C8.53481 14.4425 8.72374 14.2536 8.72374 14.0207V11.5809C8.72374 11.3479 8.53481 11.159 8.30187 11.159ZM7.87999 13.5988H6.2839V12.0028H7.87999V13.5988ZM27.6982 25.139H30.138C30.371 25.139 30.5599 24.95 30.5599 24.7171V22.2773C30.5599 22.0443 30.371 21.8554 30.138 21.8554H27.6982C27.4653 21.8554 27.2763 22.0443 27.2763 22.2773V24.7171C27.2763 24.9501 27.4652 25.139 27.6982 25.139ZM28.1201 22.6991H29.7162V24.2952H28.1201V22.6991ZM27.6982 19.7908H30.138C30.371 19.7908 30.5599 19.6019 30.5599 19.3689V16.9291C30.5599 16.6961 30.371 16.5072 30.138 16.5072H27.6982C27.4653 16.5072 27.2763 16.6961 27.2763 16.9291V19.3689C27.2763 19.6019 27.4652 19.7908 27.6982 19.7908ZM28.1201 17.3509H29.7162V18.947H28.1201V17.3509ZM27.6982 14.4425H30.138C30.371 14.4425 30.5599 14.2536 30.5599 14.0207V11.5809C30.5599 11.3479 30.371 11.159 30.138 11.159H27.6982C27.4653 11.159 27.2763 11.3479 27.2763 11.5809V14.0207C27.2763 14.2537 27.4652 14.4425 27.6982 14.4425ZM28.1201 12.0028H29.7162V13.5988H28.1201V12.0028ZM27.6982 30.4871H30.138C30.371 30.4871 30.5599 30.2982 30.5599 30.0653V27.6255C30.5599 27.3926 30.371 27.2036 30.138 27.2036H27.6982C27.4653 27.2036 27.2763 27.3926 27.2763 27.6255V30.0653C27.2763 30.2982 27.4652 30.4871 27.6982 30.4871ZM28.1201 28.0474H29.7162V29.6434H28.1201V28.0474ZM13.1089 21.606H22.8911C23.1241 21.606 23.313 21.417 23.313 21.1841V18.8143C23.313 18.5813 23.1241 18.3924 22.8911 18.3924H13.1089C12.8759 18.3924 12.687 18.5813 12.687 18.8143V21.1841C12.687 21.4171 12.8759 21.606 13.1089 21.606ZM13.5307 19.2362H22.4693V20.7622H13.5307V19.2362ZM13.1089 10.9096H22.8911C23.1241 10.9096 23.313 10.7207 23.313 10.4877V8.11786C23.313 7.88491 23.1241 7.69598 22.8911 7.69598H13.1089C12.8759 7.69598 12.687 7.88491 12.687 8.11786V10.4877C12.687 10.7208 12.8759 10.9096 13.1089 10.9096ZM13.5307 8.53973H22.4693V10.0659H13.5307V8.53973ZM13.1089 16.2579H22.8911C23.1241 16.2579 23.313 16.0689 23.313 15.836V13.4661C23.313 13.2332 23.1241 13.0442 22.8911 13.0442H13.1089C12.8759 13.0442 12.687 13.2332 12.687 13.4661V15.836C12.687 16.0689 12.8759 16.2579 13.1089 16.2579ZM13.5307 13.888H22.4693V15.4141H13.5307V13.888Z" fill="black"/>
    </g>
    <defs>
        <clipPath id="clip0_1_164">
            <rect width="36" height="36" fill="white"/>
        </clipPath>
    </defs>
</svg>
