<svg width="36" height="36" viewBox="0 0 36 36" fill="none" xmlns="http://www.w3.org/2000/svg">
    <path fill-rule="evenodd" clip-rule="evenodd" d="M31.86 20.17C31.4845 19.9748 31.1695 19.6806 30.9492 19.3193C30.7288 18.9579 30.6115 18.5432 30.61 18.12C30.5688 17.6575 30.6655 17.1932 30.888 16.7856C31.1105 16.378 31.4487 16.0455 31.86 15.83C32.4949 15.4546 32.956 14.844 33.1432 14.1306C33.3305 13.4172 33.2287 12.6588 32.86 12.02L30.59 8C30.2167 7.3712 29.6114 6.91409 28.9045 6.72707C28.1975 6.54004 27.4454 6.63805 26.81 7C26.443 7.22037 26.023 7.33679 25.595 7.33679C25.1669 7.33679 24.7469 7.22037 24.38 7C23.9659 6.80272 23.6206 6.48563 23.3888 6.08981C23.157 5.69398 23.0494 5.23767 23.08 4.78C23.0747 4.04087 22.7774 3.3338 22.2528 2.81302C21.7283 2.29223 21.0191 1.99998 20.28 2H15.72C14.9808 2.00264 14.2727 2.29743 13.7501 2.82008C13.2274 3.34274 12.9326 4.05086 12.93 4.79C12.9432 5.25863 12.8222 5.72128 12.5812 6.12344C12.3403 6.52561 11.9894 6.85055 11.57 7.06C11.2106 7.2614 10.8036 7.36213 10.3917 7.35157C9.97991 7.34101 9.57856 7.21955 9.22998 7C8.91441 6.8113 8.56432 6.68756 8.20026 6.63605C7.8362 6.58453 7.46552 6.60627 7.10998 6.7C6.75525 6.7917 6.4227 6.95411 6.1323 7.1775C5.84189 7.4009 5.5996 7.68066 5.41998 8L3.11998 12C2.75128 12.6388 2.6495 13.3972 2.83673 14.1106C3.02397 14.824 3.48511 15.4346 4.11998 15.81C4.48743 16.002 4.797 16.2886 5.01673 16.6402C5.23646 16.9917 5.35841 17.3956 5.36998 17.81C5.41117 18.2725 5.31443 18.7368 5.09196 19.1444C4.86949 19.552 4.53127 19.8845 4.11998 20.1C3.48511 20.4754 3.02397 21.0861 2.83673 21.7994C2.6495 22.5128 2.75128 23.2712 3.11998 23.91L5.41998 27.91C5.59008 28.2461 5.82813 28.5432 6.11904 28.7824C6.40996 29.0217 6.7474 29.198 7.10998 29.3C7.4813 29.4008 7.86905 29.4262 8.25035 29.3747C8.63164 29.3232 8.99875 29.1958 9.32998 29C9.71755 28.7827 10.1584 28.6787 10.6022 28.7C11.046 28.7212 11.4749 28.8667 11.84 29.12C12.1731 29.3249 12.4481 29.6117 12.6389 29.9531C12.8297 30.2944 12.9299 30.6789 12.93 31.07C12.9107 31.4626 12.9737 31.8549 13.1149 32.2217C13.2561 32.5885 13.4724 32.9217 13.75 33.2C14.0107 33.4647 14.3223 33.6738 14.666 33.8147C15.0098 33.9557 15.3785 34.0255 15.75 34.02H20.31C21.0491 34.0174 21.7572 33.7226 22.2799 33.1999C22.8026 32.6773 23.0973 31.9691 23.1 31.23C23.0825 30.8032 23.1811 30.3797 23.3854 30.0046C23.5897 29.6295 23.892 29.3168 24.26 29.1C24.6204 28.8344 25.0522 28.6829 25.4996 28.665C25.9471 28.6472 26.3895 28.7639 26.77 29C27.0864 29.1854 27.4363 29.3067 27.7996 29.3568C28.1629 29.4069 28.5325 29.3849 28.8873 29.292C29.2421 29.1991 29.5751 29.0372 29.8673 28.8155C30.1594 28.5938 30.405 28.3167 30.59 28L32.88 24C33.0648 23.6816 33.1851 23.3299 33.2339 22.965C33.2826 22.6001 33.259 22.2292 33.1643 21.8735C33.0695 21.5177 32.9056 21.1842 32.6817 20.8919C32.4579 20.5996 32.1787 20.3543 31.86 20.17ZM31.56 23.17L29.27 27.17C29.0975 27.4614 28.8173 27.6733 28.49 27.76C28.3235 27.8096 28.1484 27.8236 27.9762 27.8012C27.8039 27.7789 27.6383 27.7205 27.49 27.63C26.879 27.2501 26.1721 27.0529 25.4527 27.0617C24.7333 27.0706 24.0314 27.2851 23.43 27.68C22.8304 28.033 22.3362 28.54 21.9986 29.1484C21.661 29.7568 21.4923 30.4444 21.51 31.14C21.5108 31.3055 21.4785 31.4696 21.415 31.6224C21.3514 31.7753 21.2579 31.9139 21.14 32.03C21.0225 32.1496 20.8825 32.2448 20.728 32.31C20.5735 32.3752 20.4077 32.4092 20.24 32.41H15.72C15.5523 32.4092 15.3865 32.3752 15.232 32.31C15.0775 32.2448 14.9375 32.1496 14.82 32.03C14.6856 31.8925 14.5828 31.7273 14.5189 31.5459C14.455 31.3645 14.4315 31.1714 14.45 30.98C14.4575 30.2889 14.275 29.6091 13.9223 29.0147C13.5695 28.4204 13.0602 27.9344 12.45 27.61C11.8852 27.2717 11.2413 27.0881 10.583 27.0775C9.92475 27.067 9.27531 27.2299 8.69998 27.55C8.53188 27.6597 8.34359 27.7347 8.14613 27.7708C7.94867 27.8069 7.74601 27.8032 7.54998 27.76C7.22681 27.67 6.95091 27.4586 6.77998 27.17L4.48998 23.17C4.3227 22.8793 4.27718 22.5343 4.36336 22.2102C4.44954 21.8861 4.66042 21.6092 4.94998 21.44C5.58761 21.0907 6.11362 20.5684 6.46745 19.9333C6.82128 19.2982 6.98854 18.576 6.94998 17.85C6.95459 17.1568 6.77099 16.4754 6.41877 15.8784C6.06655 15.2814 5.55892 14.7912 4.94998 14.46C4.66042 14.2908 4.44954 14.0139 4.36336 13.6898C4.27718 13.3657 4.3227 13.0207 4.48998 12.73L6.77998 8.73C6.95091 8.44135 7.22681 8.22995 7.54998 8.14C7.71664 8.09164 7.89148 8.07823 8.06356 8.1006C8.23563 8.12297 8.40124 8.18064 8.54998 8.27C9.16095 8.64994 9.86788 8.84712 10.5873 8.83826C11.3067 8.8294 12.0086 8.61487 12.61 8.22C13.2096 7.86698 13.7038 7.35998 14.0414 6.75159C14.379 6.1432 14.5477 5.45556 14.53 4.76C14.5291 4.59447 14.5614 4.43043 14.625 4.27758C14.6885 4.12472 14.782 3.98614 14.9 3.87C15.0175 3.75038 15.1575 3.65522 15.312 3.59C15.4665 3.52478 15.6323 3.49079 15.8 3.49H20.36C20.5277 3.49079 20.6935 3.52478 20.848 3.59C21.0025 3.65522 21.1425 3.75038 21.26 3.87C21.3779 3.98614 21.4714 4.12472 21.535 4.27758C21.5985 4.43043 21.6308 4.59447 21.63 4.76C21.603 5.45736 21.7665 6.14889 22.1031 6.76027C22.4396 7.37165 22.9364 7.87977 23.54 8.23C24.1563 8.59421 24.8591 8.78634 25.575 8.78634C26.2909 8.78634 26.9937 8.59421 27.61 8.23C27.7583 8.13949 27.9239 8.08115 28.0962 8.05876C28.2684 8.03636 28.4435 8.05041 28.61 8.1C28.9373 8.18666 29.2175 8.39858 29.39 8.69L31.68 12.69C31.8473 12.9807 31.8928 13.3257 31.8066 13.6498C31.7204 13.9739 31.5095 14.2508 31.22 14.42C30.5824 14.7693 30.0564 15.2916 29.7025 15.9267C29.3487 16.5618 29.1814 17.284 29.22 18.01C29.2154 18.7032 29.399 19.3846 29.7512 19.9816C30.1034 20.5786 30.6111 21.0688 31.22 21.4C31.3661 21.4935 31.4915 21.616 31.5885 21.7598C31.6854 21.9037 31.7519 22.0659 31.7837 22.2364C31.8156 22.407 31.8122 22.5822 31.7737 22.7514C31.7352 22.9205 31.6625 23.08 31.56 23.22V23.17Z" fill="black"/>
    <path fill-rule="evenodd" clip-rule="evenodd" d="M18 18.76C18.9565 18.764 19.8927 18.4838 20.6898 17.955C21.487 17.4263 22.1091 16.6727 22.4775 15.7899C22.8458 14.9071 22.9438 13.9349 22.7588 12.9963C22.5739 12.0578 22.1145 11.1954 21.4388 10.5183C20.7631 9.84117 19.9016 9.37996 18.9635 9.19309C18.0253 9.00623 17.0529 9.10214 16.1693 9.46865C15.2857 9.83516 14.5309 10.4558 14.0005 11.2518C13.4701 12.0478 13.188 12.9834 13.19 13.94C13.1886 14.5725 13.3121 15.199 13.5532 15.7838C13.7944 16.3685 14.1484 16.8999 14.5952 17.3476C15.042 17.7954 15.5727 18.1506 16.1569 18.3929C16.7412 18.6353 17.3675 18.76 18 18.76ZM18 10.63C18.6554 10.626 19.2974 10.8168 19.8443 11.1781C20.3913 11.5394 20.8186 12.0549 21.0722 12.6594C21.3258 13.2639 21.3942 13.93 21.2688 14.5734C21.1433 15.2168 20.8297 15.8084 20.3676 16.2734C19.9055 16.7383 19.3157 17.0555 18.6731 17.1849C18.0305 17.3142 17.3639 17.2498 16.7579 16.9999C16.1519 16.75 15.6338 16.3257 15.2692 15.781C14.9046 15.2362 14.71 14.5955 14.71 13.94C14.7086 13.5066 14.7927 13.0773 14.9573 12.6764C15.1219 12.2755 15.3639 11.911 15.6694 11.6036C15.9749 11.2962 16.338 11.0521 16.7379 10.885C17.1377 10.718 17.5666 10.6313 18 10.63Z" fill="black"/>
    <path fill-rule="evenodd" clip-rule="evenodd" d="M11.15 24.06C11.1451 24.0335 11.1451 24.0064 11.15 23.98C11.1427 24.0062 11.1427 24.0338 11.15 24.06Z" fill="black"/>
    <path fill-rule="evenodd" clip-rule="evenodd" d="M21.0499 20.29H14.9999C13.9937 20.2899 13.0281 20.6869 12.3128 21.3946C11.5976 22.1024 11.1905 23.0638 11.1799 24.07C11.1799 24.1698 11.1996 24.2686 11.2378 24.3608C11.276 24.453 11.332 24.5368 11.4025 24.6074C11.4731 24.6779 11.5569 24.7339 11.6491 24.7721C11.7413 24.8103 11.8401 24.83 11.9399 24.83C12.1384 24.8203 12.3261 24.7371 12.4666 24.5966C12.6071 24.4561 12.6902 24.2684 12.6999 24.07C12.7104 23.4669 12.9574 22.8921 13.3876 22.4694C13.8178 22.0467 14.3968 21.8099 14.9999 21.81H21.0799C21.3802 21.81 21.6775 21.8693 21.9548 21.9845C22.232 22.0997 22.4838 22.2685 22.6957 22.4813C22.9075 22.6941 23.0753 22.9466 23.1893 23.2244C23.3032 23.5022 23.3612 23.7997 23.3599 24.1C23.3598 24.1974 23.3813 24.2937 23.4228 24.3819C23.4642 24.4701 23.5248 24.548 23.5999 24.61C23.7259 24.7347 23.893 24.8094 24.0699 24.82H24.1499C24.3445 24.8097 24.5277 24.7251 24.6617 24.5837C24.7956 24.4423 24.8702 24.2548 24.8699 24.06C24.862 23.0539 24.4554 22.092 23.7393 21.3853C23.0232 20.6785 22.056 20.2846 21.0499 20.29Z" fill="black"/>
</svg>
