<svg xmlns="http://www.w3.org/2000/svg" xmlns:xlink="http://www.w3.org/1999/xlink" viewBox="0 0 1106.71 259.51"><defs><style>.cls-1{isolation:isolate;}.cls-2,.cls-3,.cls-4{fill:none;stroke-linecap:round;stroke-miterlimit:10;stroke-width:40.27px;}.cls-2,.cls-3{opacity:0.5;}.cls-2{stroke:url(#New_Gradient_Swatch_copy_3);}.cls-3{stroke:url(#New_Gradient_Swatch_copy_3-2);}.cls-4{mix-blend-mode:multiply;stroke:url(#linear-gradient);}.cls-5{fill:gray;}.cls-6{fill:#b3b3b3;}</style><linearGradient id="New_Gradient_Swatch_copy_3" x1="-159.17" y1="673.4" x2="-91.6" y2="437.74" gradientTransform="matrix(0.3, 0.95, -0.95, 0.3, 699.36, 73.49)" gradientUnits="userSpaceOnUse"><stop offset="0" stop-color="#6701ff"/><stop offset="0.99" stop-color="#ff5c1b"/><stop offset="1" stop-color="#ff5c1b"/></linearGradient><linearGradient id="New_Gradient_Swatch_copy_3-2" x1="-55.84" y1="642.5" x2="-4.31" y2="462.77" xlink:href="#New_Gradient_Swatch_copy_3"/><linearGradient id="linear-gradient" x1="-91.61" y1="685.22" x2="-69.1" y2="579.31" gradientTransform="matrix(0.3, 0.95, -0.95, 0.3, 699.36, 73.49)" gradientUnits="userSpaceOnUse"><stop offset="0" stop-color="#6701ff"/><stop offset="0.12" stop-color="#750aea"/><stop offset="0.38" stop-color="#9820b2"/><stop offset="0.74" stop-color="#cf435a"/><stop offset="0.99" stop-color="#f75c1b"/><stop offset="1" stop-color="#f75c1b"/></linearGradient></defs><g class="cls-1"><g id="AW"><path class="cls-2" d="M234.7,133.88A149.33,149.33,0,0,1,28.47,88.49" transform="translate(-8.34 -68.36)"/><path class="cls-3" d="M234.69,133.87A149.31,149.31,0,0,0,92.29,289.78" transform="translate(-8.34 -68.36)"/><path class="cls-4" d="M92.29,289.78A149.32,149.32,0,0,0,28.47,88.49" transform="translate(-8.34 -68.36)"/><path class="cls-5" d="M246.73,300q-1.39.28-4.38.63c-2,.23-4.34.46-7,.7s-5.71.44-9.05.62-6.82.28-10.44.28a69.32,69.32,0,0,1-17.76-1.88,30.17,30.17,0,0,1-10.86-5,16.19,16.19,0,0,1-5.44-7.24,25.09,25.09,0,0,1-1.46-8.43,26.7,26.7,0,0,1,1.74-10,16.63,16.63,0,0,1,5.71-7.24A27.91,27.91,0,0,1,198.13,258a71.54,71.54,0,0,1,15.6-1.46c3.52,0,6.87.12,10,.35s5.53.44,7.11.63a18.11,18.11,0,0,0-1.6-8.08,12.58,12.58,0,0,0-4.39-5,18,18,0,0,0-6.69-2.5,48.72,48.72,0,0,0-8.63-.7,37.07,37.07,0,0,0-12.74,1.81,25.37,25.37,0,0,0-6.34,3.07,17.47,17.47,0,0,1-2.3-2.65,7.7,7.7,0,0,1-1.46-4.74,7.88,7.88,0,0,1,1-3.83,9.16,9.16,0,0,1,3.69-3.34,24.3,24.3,0,0,1,7.11-2.3,63.64,63.64,0,0,1,11.28-.83,64.9,64.9,0,0,1,15,1.6,32.88,32.88,0,0,1,11.63,5.08,23.41,23.41,0,0,1,7.59,9.2,31.86,31.86,0,0,1,2.71,13.78ZM231,269.1q-1.4-.28-5.23-.84a86.91,86.91,0,0,0-11.49-.56q-9.47,0-13.78,2.86t-4.32,9a11.54,11.54,0,0,0,.9,4.6,8.2,8.2,0,0,0,3.14,3.55,17.26,17.26,0,0,0,6.06,2.23,49.84,49.84,0,0,0,9.54.76,81.82,81.82,0,0,0,10.16-.49c2.51-.32,4.18-.57,5-.76Z" transform="translate(-8.34 -68.36)"/><path class="cls-5" d="M256.19,218.09c0-2.6.75-4.48,2.23-5.65a9.73,9.73,0,0,1,6.13-1.74,16.63,16.63,0,0,1,4.67.63c1.43.42,2.39.72,2.85.91v18.24h20.05V245.1H272.07v31.06a15.27,15.27,0,0,0,1,5.92,9.16,9.16,0,0,0,2.71,3.69,10.21,10.21,0,0,0,4,2,20.38,20.38,0,0,0,4.81.56,22,22,0,0,0,7.52-1.26c1.69-.61,4.23-1.84,4.23-1.84s.34.9,1,2.23c.36.76,1,1.92,1.54,2.9.73,1.25,1.28,2.19,2,3.22.95,1.38,1.77,2.33,1.77,2.33a23.84,23.84,0,0,1-2.23,1.47,28.2,28.2,0,0,1-4.94,2.37,44.12,44.12,0,0,1-6.55,1.88,38.43,38.43,0,0,1-7.94.76q-12.25,0-18.52-6.33t-6.27-16.65Z" transform="translate(-8.34 -68.36)"/><path class="cls-6" d="M396.06,240.87v39.79q0,7.69,4,10.84t10.43,3.16a21.32,21.32,0,0,0,7.68-1.37,31.79,31.79,0,0,0,5.49-2.61l4,5.9a17,17,0,0,1-2.54,1.65,35.89,35.89,0,0,1-4.11,1.92,31.82,31.82,0,0,1-5.63,1.58,37.85,37.85,0,0,1-7.07.61,26.65,26.65,0,0,1-9.47-1.51,17.87,17.87,0,0,1-6.58-4.18,17.22,17.22,0,0,1-3.91-6.38,24.23,24.23,0,0,1-1.31-8.1V218.91a4.32,4.32,0,0,1,4.94-4.66,8.46,8.46,0,0,1,2.41.34,12,12,0,0,1,1.71.62v17.43h24.15c1.92,0,3.25.43,4,1.3a4.84,4.84,0,0,1,1.1,3.22,7.17,7.17,0,0,1-.28,2.06,15.12,15.12,0,0,1-.55,1.65Z" transform="translate(-8.34 -68.36)"/><path class="cls-6" d="M435.21,204a4.33,4.33,0,0,1,4.94-4.67,8.45,8.45,0,0,1,2.4.35,10.89,10.89,0,0,1,1.72.61v42.27a24.73,24.73,0,0,1,3.84-4.33,25.36,25.36,0,0,1,5.55-3.77,34.24,34.24,0,0,1,7.48-2.68,40.67,40.67,0,0,1,9.47-1q13.31,0,20.86,7T499,257.2v43.22H490V261.86a42.33,42.33,0,0,0-1-9.81,18,18,0,0,0-3.5-7.34,15.61,15.61,0,0,0-6.52-4.6,28.44,28.44,0,0,0-10.22-1.57,27.77,27.77,0,0,0-10.77,1.92,21.28,21.28,0,0,0-7.62,5.21,21.78,21.78,0,0,0-4.53,7.69,28.6,28.6,0,0,0-1.5,9.33v37.73h-9.06Z" transform="translate(-8.34 -68.36)"/><path class="cls-6" d="M516.86,272.43q1.51,10.56,8.79,16.33t19.21,5.76a31.38,31.38,0,0,0,11.87-2,61.92,61.92,0,0,0,7.47-3.5l4,6.59c-.73.46-1.83,1.08-3.29,1.85a39.09,39.09,0,0,1-5.35,2.27,51.62,51.62,0,0,1-7.14,1.85,47.51,47.51,0,0,1-8.78.75,43.79,43.79,0,0,1-14.2-2.26,34,34,0,0,1-11.66-6.66,30.93,30.93,0,0,1-7.89-10.84A36.35,36.35,0,0,1,507,267.63a39.78,39.78,0,0,1,2.75-15,34.14,34.14,0,0,1,7.68-11.66,34.5,34.5,0,0,1,11.74-7.55A40.27,40.27,0,0,1,544,230.72a41.15,41.15,0,0,1,12,1.57,24.37,24.37,0,0,1,8.58,4.46,18.52,18.52,0,0,1,5.14,6.8,20.8,20.8,0,0,1,1.72,8.43,18.56,18.56,0,0,1-1.86,8.31,16.57,16.57,0,0,1-6.31,6.58,36.5,36.5,0,0,1-11.94,4.39,93,93,0,0,1-18.86,1.58q-4.39,0-8-.07C522.05,272.73,519.52,272.61,516.86,272.43Zm-.27-7.14c2.47.19,4.87.3,7.2.35s4.78.07,7.35.07a83,83,0,0,0,15.36-1.17,33.33,33.33,0,0,0,9.54-3.09,10.82,10.82,0,0,0,6.24-10,12.23,12.23,0,0,0-1.57-6.45,12,12,0,0,0-4.26-4.19,19.54,19.54,0,0,0-6-2.26,34.37,34.37,0,0,0-6.93-.69,27.16,27.16,0,0,0-11.38,2.26,24.33,24.33,0,0,0-8.31,6.11,28.23,28.23,0,0,0-5.21,8.78A31.29,31.29,0,0,0,516.59,265.29Z" transform="translate(-8.34 -68.36)"/><path class="cls-6" d="M624.56,237.58a4.24,4.24,0,0,1-.76,2.47,12.55,12.55,0,0,1-1.44,1.78,36.08,36.08,0,0,0-5.9-2.06,32.44,32.44,0,0,0-8.37-1,27.91,27.91,0,0,0-9.4,1.37,14.54,14.54,0,0,0-6.1,4,15.36,15.36,0,0,0-3.3,6.66,38.72,38.72,0,0,0-1,9.05v40.48h-9.05V255.69q0-11.94,7.13-18.46t20.86-6.51a39.5,39.5,0,0,1,12.35,1.64Q624.55,234,624.56,237.58Z" transform="translate(-8.34 -68.36)"/><path class="cls-6" d="M652.85,238.26a34.1,34.1,0,0,0-12.49,1.92,23,23,0,0,0-6.59,3.57,6.45,6.45,0,0,1-1.71-1.92,5.1,5.1,0,0,1-.76-2.74,4.44,4.44,0,0,1,.76-2.61,8.21,8.21,0,0,1,1.85-1.92c.91-.73,2.93-1.56,6-2.47a46.19,46.19,0,0,1,12.62-1.37q16.33,0,25.39,6.72t9,21.68v41q-4,.68-11.45,1.44t-16.95.75q-11,0-17.63-1.92a28.35,28.35,0,0,1-10.36-5,15,15,0,0,1-4.94-6.93,24.77,24.77,0,0,1-1.24-7.68,25.5,25.5,0,0,1,1.51-9,15.78,15.78,0,0,1,5.15-6.93,26.8,26.8,0,0,1,9.81-4.53,61.75,61.75,0,0,1,15.5-1.64c2,0,4.12.07,6.32.2l6.24.41c2,.14,3.75.3,5.35.49l3.78.41v-.83A22.57,22.57,0,0,0,676,249a17.35,17.35,0,0,0-5.63-6.52,21.37,21.37,0,0,0-8-3.3A49.14,49.14,0,0,0,652.85,238.26ZM678.1,267.9q-1.25-.27-6.52-1.1A109.36,109.36,0,0,0,656,266a55.84,55.84,0,0,0-9.19.69,20.46,20.46,0,0,0-7.07,2.4,11.75,11.75,0,0,0-4.53,4.59,14.78,14.78,0,0,0-1.57,7.14q0,7.41,5.83,10.91t19.41,3.5a84.55,84.55,0,0,0,13.31-.76q4.39-.75,5.91-1.16Z" transform="translate(-8.34 -68.36)"/><path class="cls-6" d="M695.49,269.82c0-2.19.07-4.14.2-5.83s.3-3.18.48-4.46a38.47,38.47,0,0,1,4.26-12.07A31.73,31.73,0,0,1,708,238.4a33,33,0,0,1,10.43-5.7,39.91,39.91,0,0,1,12.76-2,37.63,37.63,0,0,1,14.69,2.81,34.42,34.42,0,0,1,19,19.07,37.88,37.88,0,0,1,0,28A34.79,34.79,0,0,1,757.37,292a34,34,0,0,1-11.52,7.62,38.53,38.53,0,0,1-14.69,2.74,33.79,33.79,0,0,1-15.78-3.63,28.1,28.1,0,0,1-10.84-9.54v38.7h-9Zm62.29-3.29a31.85,31.85,0,0,0-1.85-10.91,25.34,25.34,0,0,0-13.72-14.89,26.68,26.68,0,0,0-11.05-2.19,27.07,27.07,0,0,0-10.9,2.12,24.75,24.75,0,0,0-8.31,5.83,26.75,26.75,0,0,0-5.35,8.86,31.7,31.7,0,0,0-1.92,11.18,31,31,0,0,0,1.92,10.91,26.08,26.08,0,0,0,13.79,14.95,25.25,25.25,0,0,0,10.77,2.27,27.33,27.33,0,0,0,11.05-2.13,24.23,24.23,0,0,0,8.37-6,26.57,26.57,0,0,0,5.35-8.92A32,32,0,0,0,757.78,266.53Z" transform="translate(-8.34 -68.36)"/><path class="cls-6" d="M784.74,272.43q1.5,10.56,8.78,16.33t19.21,5.76a31.38,31.38,0,0,0,11.87-2,63,63,0,0,0,7.48-3.5l4,6.59c-.74.46-1.83,1.08-3.3,1.85a39.09,39.09,0,0,1-5.35,2.27,51.46,51.46,0,0,1-7.13,1.85,47.7,47.7,0,0,1-8.79.75,43.79,43.79,0,0,1-14.2-2.26,34.12,34.12,0,0,1-11.66-6.66,30.93,30.93,0,0,1-7.89-10.84,36.35,36.35,0,0,1-2.88-14.95,39.78,39.78,0,0,1,2.74-15,34,34,0,0,1,7.69-11.66A34.36,34.36,0,0,1,797,233.39a40.36,40.36,0,0,1,14.89-2.67,41.13,41.13,0,0,1,12,1.57,24.37,24.37,0,0,1,8.58,4.46,18.52,18.52,0,0,1,5.14,6.8,20.64,20.64,0,0,1,1.72,8.43,18.69,18.69,0,0,1-1.85,8.31,16.6,16.6,0,0,1-6.32,6.58,36.52,36.52,0,0,1-11.93,4.39,93.2,93.2,0,0,1-18.87,1.58q-4.39,0-8-.07C789.93,272.73,787.39,272.61,784.74,272.43Zm-.28-7.14c2.47.19,4.87.3,7.21.35s4.77.07,7.34.07a83.19,83.19,0,0,0,15.37-1.17,33.36,33.36,0,0,0,9.53-3.09,10.85,10.85,0,0,0,6.25-10,12.23,12.23,0,0,0-1.58-6.45,12,12,0,0,0-4.26-4.19,19.48,19.48,0,0,0-6-2.26,34.51,34.51,0,0,0-6.93-.69A27.21,27.21,0,0,0,800,240.11a24.29,24.29,0,0,0-8.3,6.11,28.25,28.25,0,0,0-5.22,8.78A31.55,31.55,0,0,0,784.46,265.29Z" transform="translate(-8.34 -68.36)"/><path class="cls-6" d="M901.86,237.3a4.32,4.32,0,0,1,4.94-4.66,8.34,8.34,0,0,1,2.4.34,10.71,10.71,0,0,1,1.72.62v39.65a30.65,30.65,0,0,1-2.2,11.8,25.68,25.68,0,0,1-6.31,9.2,28.64,28.64,0,0,1-10.08,6A39.87,39.87,0,0,1,879,302.34a39.25,39.25,0,0,1-13.31-2.12,28.82,28.82,0,0,1-10-6,25.8,25.8,0,0,1-6.31-9.2,30.65,30.65,0,0,1-2.2-11.8V237.3a4.32,4.32,0,0,1,4.94-4.66,8.34,8.34,0,0,1,2.4.34,10.71,10.71,0,0,1,1.72.62v36.91q0,11.39,5.63,17.7T879,294.52q11.52,0,17.22-6.31t5.69-17.7Z" transform="translate(-8.34 -68.36)"/><path class="cls-6" d="M928.69,240.87v39.79q0,7.69,4,10.84t10.43,3.16a21.32,21.32,0,0,0,7.68-1.37,31.79,31.79,0,0,0,5.49-2.61l4,5.9a17,17,0,0,1-2.54,1.65,35.1,35.1,0,0,1-4.11,1.92,31.82,31.82,0,0,1-5.63,1.58,37.85,37.85,0,0,1-7.07.61,26.55,26.55,0,0,1-9.46-1.51,17.83,17.83,0,0,1-6.59-4.18,17.22,17.22,0,0,1-3.91-6.38,24.23,24.23,0,0,1-1.31-8.1V218.91a4.32,4.32,0,0,1,4.94-4.66,8.46,8.46,0,0,1,2.41.34,12,12,0,0,1,1.71.62v17.43h24.15c1.92,0,3.25.43,4,1.3a4.84,4.84,0,0,1,1.1,3.22,7.17,7.17,0,0,1-.28,2.06q-.27,1-.54,1.65Z" transform="translate(-8.34 -68.36)"/><path class="cls-6" d="M968.36,237.3a4.32,4.32,0,0,1,4.94-4.66,8.44,8.44,0,0,1,2.4.34,10.71,10.71,0,0,1,1.72.62v66.82h-9.06Z" transform="translate(-8.34 -68.36)"/><path class="cls-6" d="M1022.6,238.54a33.18,33.18,0,0,0-10.63,1.64,22.3,22.3,0,0,0-8.44,5.08A23.27,23.27,0,0,0,998,254a35.17,35.17,0,0,0-2,12.42,33.39,33.39,0,0,0,2.2,12.76,23.17,23.17,0,0,0,6,8.72,24.42,24.42,0,0,0,8.92,5,35.78,35.78,0,0,0,10.91,1.64q7.26,0,11.32-1.64a57.89,57.89,0,0,0,6.24-2.89l3.7,6.73a53.67,53.67,0,0,1-9.19,3.91,45.16,45.16,0,0,1-13.72,1.71A43.17,43.17,0,0,1,1008,300a31,31,0,0,1-19-18,38.54,38.54,0,0,1-2.74-14.95A40.91,40.91,0,0,1,989,251.64a33,33,0,0,1,7.55-11.46,31.42,31.42,0,0,1,11.53-7.06,43.34,43.34,0,0,1,14.68-2.4q9.06,0,14.13,1.85c3.39,1.23,5.49,2.22,6.32,3a6.86,6.86,0,0,1,1.64,1.71,4.48,4.48,0,0,1,.69,2.54,6,6,0,0,1-.76,2.61,7.17,7.17,0,0,1-2.26,2.61,29,29,0,0,0-7.34-4.26A31.46,31.46,0,0,0,1022.6,238.54Z" transform="translate(-8.34 -68.36)"/><path class="cls-6" d="M1106.82,235.65q3.84,2.21,3.84,5.08a4.77,4.77,0,0,1-1,3.16,9.34,9.34,0,0,1-2.13,1.92,17.22,17.22,0,0,0-2.4-1.78,28.34,28.34,0,0,0-5.08-2.54,46.57,46.57,0,0,0-7.75-2.27,50.69,50.69,0,0,0-10.43-1q-9.6,0-15.23,2.68a9.12,9.12,0,0,0-5.62,8.85,8.6,8.6,0,0,0,3.77,7.55q3.77,2.6,10.63,3.43l15.65,1.78a50.57,50.57,0,0,1,11.32,2.54,23.84,23.84,0,0,1,7.41,4.18,14.63,14.63,0,0,1,4,5.56,18,18,0,0,1-6.44,21.61,30.48,30.48,0,0,1-9.54,4.33,49.93,49.93,0,0,1-13.24,1.57,67.77,67.77,0,0,1-12.63-1.09,102,102,0,0,1-10.08-2.41,43.74,43.74,0,0,1-6.93-2.6,28.56,28.56,0,0,1-3.16-1.72l3.84-7c.55.28,1.63.81,3.23,1.58a50.52,50.52,0,0,0,6.1,2.4,68.55,68.55,0,0,0,8.65,2.2,56.92,56.92,0,0,0,10.84,1,52,52,0,0,0,8.23-.62,23.23,23.23,0,0,0,6.73-2.06,12.59,12.59,0,0,0,4.53-3.63,9,9,0,0,0,1.64-5.49,10,10,0,0,0-3.43-8c-2.29-2-6.63-3.31-13-4.05l-14.41-1.64q-11.12-1.25-17-6a15.84,15.84,0,0,1-5.83-12.9,17.92,17.92,0,0,1,1.51-7.2,15.9,15.9,0,0,1,5-6.25,26.88,26.88,0,0,1,9.26-4.39,52.67,52.67,0,0,1,14.27-1.64,62.53,62.53,0,0,1,15.44,1.64A44.46,44.46,0,0,1,1106.82,235.65Z" transform="translate(-8.34 -68.36)"/><path class="cls-5" d="M374.5,250.51A35.75,35.75,0,0,0,367,238.82a33.81,33.81,0,0,0-11.27-7.65,36.17,36.17,0,0,0-14.13-2.72,34.2,34.2,0,0,0-7.52.8,35.7,35.7,0,0,0-16.14,7.5V199.22c-.46-.18-1.39-.48-2.78-.9a15.82,15.82,0,0,0-4.59-.63,9.73,9.73,0,0,0-6.27,1.81c-1.48,1.21-2.22,3.06-2.22,5.57V262a50.74,50.74,0,0,0,2.78,17.67,34.16,34.16,0,0,0,7.79,12.53,32.13,32.13,0,0,0,11.9,7.51,43.93,43.93,0,0,0,15.1,2.51,39.92,39.92,0,0,0,15.11-2.79,36.18,36.18,0,0,0,11.89-7.65,33.93,33.93,0,0,0,7.8-11.69,38.8,38.8,0,0,0,2.78-14.75A39.41,39.41,0,0,0,374.5,250.51Zm-15.24,23.8a20.53,20.53,0,0,1-4.39,7.1,20.81,20.81,0,0,1-6.81,4.73,21.46,21.46,0,0,1-8.7,1.74,22,22,0,0,1-8.7-1.67,20,20,0,0,1-11.28-11.69,25.57,25.57,0,0,1-1.6-9.18,24.8,24.8,0,0,1,1.6-8.91,22.64,22.64,0,0,1,4.39-7.24,19.58,19.58,0,0,1,6.75-4.8,21.76,21.76,0,0,1,8.84-1.74,21.46,21.46,0,0,1,8.7,1.74,21,21,0,0,1,6.81,4.73,20.56,20.56,0,0,1,4.39,7.17,26.09,26.09,0,0,1,1.53,9A25.44,25.44,0,0,1,359.26,274.31Z" transform="translate(-8.34 -68.36)"/></g></g></svg>