<svg width="625" height="312" viewBox="0 0 625 312" fill="none" xmlns="http://www.w3.org/2000/svg">
    <path d="M13.1402 280.12V305.01C13.1402 306.32 13.8302 307.04 15.2002 307.16L22.4002 307.91V310.81H1.26019V307.82L5.5602 307.17C6.8702 306.98 7.52019 306.26 7.52019 305.02V278.92C7.52019 277.49 6.8602 276.67 5.5602 276.49L0.700195 275.93V273.12C2.3802 272.62 4.19019 272.22 6.13019 271.9C8.06019 271.59 9.8702 271.4 11.5602 271.34L12.4002 272.27L13.1502 280.13L13.1402 280.12ZM11.8302 280.21C12.5202 279.03 13.6102 277.73 15.1002 276.33C16.5902 274.93 18.3402 273.73 20.3402 272.73C22.3402 271.73 24.3302 271.23 26.3302 271.23C27.0202 271.23 27.7602 271.31 28.5702 271.46C29.3802 271.61 30.1002 271.85 30.7202 272.16C30.8402 274.03 30.8302 276.11 30.6702 278.38C30.5102 280.66 30.2502 282.7 29.8702 284.51H26.9702L26.0302 278.8C25.9002 278.05 25.6702 277.52 25.3302 277.21C24.9902 276.9 24.5002 276.74 23.8802 276.74C21.7602 276.74 19.6502 277.22 17.5702 278.19C15.4802 279.16 13.5902 280.73 11.9102 282.91L11.8202 280.2L11.8302 280.21Z" fill="#11530C"/>
    <path d="M42.2302 292.1C42.2302 285.61 43.8802 280.52 47.1902 276.8C50.4902 273.09 54.8002 271.23 60.1002 271.23C63.9002 271.23 67.1502 272.32 69.8302 274.51C72.5102 276.69 73.8502 280.09 73.8502 284.71C73.8502 285.27 73.8302 285.99 73.8002 286.86C73.7702 287.73 73.6902 288.51 73.5702 289.2H46.5302V285.92H67.7702C67.8302 285.61 67.8802 285.33 67.9102 285.08C67.9402 284.83 67.9602 284.55 67.9602 284.24C67.9602 281.37 67.1602 279.06 65.5702 277.32C63.9802 275.57 61.7802 274.7 58.9702 274.7C55.7302 274.7 53.1402 275.98 51.2002 278.54C49.2702 281.1 48.3002 285.12 48.3002 290.61C48.3002 294.91 48.8802 298.3 50.0302 300.76C51.1802 303.22 52.6802 304.97 54.5202 306C56.3602 307.03 58.3402 307.54 60.4602 307.54C62.8302 307.54 64.9802 306.98 66.9202 305.86C68.8502 304.74 70.3502 303.24 71.4102 301.37L73.7502 302.59C72.9402 305.27 71.2502 307.47 68.7002 309.19C66.1402 310.9 62.9302 311.76 59.0602 311.76C55.1902 311.76 52.2002 310.9 49.7002 309.19C47.2002 307.47 45.3302 305.14 44.0902 302.17C42.8402 299.21 42.2202 295.86 42.2202 292.11L42.2302 292.1Z" fill="#11530C"/>
    <path d="M86.39 310.81V307.82L90.69 307.17C92 306.98 92.65 306.3 92.65 305.11V256.93C92.65 255.75 92 255.06 90.69 254.87L85.54 254.12V251.59C87.29 250.97 89.25 250.51 91.43 250.23C93.61 249.95 95.58 249.78 97.32 249.72L98.26 250.65V305.01C98.26 306.26 98.92 306.98 100.22 307.16L104.34 307.81V310.8H86.38L86.39 310.81ZM111.84 310.81V307.82L115.96 307.17C116.52 307.05 116.99 306.83 117.36 306.51C117.73 306.2 117.92 305.7 117.92 305.01V287.52C117.92 283.59 117.41 280.61 116.38 278.59C115.35 276.57 113.18 275.55 109.88 275.55C107.38 275.55 104.95 276.02 102.58 276.95C100.21 277.89 98.12 279.35 96.31 281.35L96.59 278.54C98.71 275.73 101.13 273.82 103.84 272.79C106.55 271.76 109.25 271.25 111.93 271.25C116.42 271.25 119.48 272.56 121.1 275.18C122.72 277.8 123.53 281.48 123.53 286.22V305.02C123.53 306.27 124.18 306.99 125.49 307.17L129.79 307.82V310.81H111.83H111.84Z" fill="#11530C"/>
    <path d="M151.88 311.56C148.89 311.56 146.34 310.78 144.26 309.22C142.17 307.66 141.13 305.36 141.13 302.3C141.13 299.56 141.91 297.47 143.47 296.03C145.03 294.59 146.98 293.57 149.32 292.94C151.66 292.31 153.92 291.91 156.1 291.72L165.36 290.88V294.16L156.75 295C153.82 295.25 151.51 295.87 149.83 296.87C148.15 297.87 147.3 299.52 147.3 301.83C147.3 303.58 147.83 304.95 148.89 305.95C149.95 306.95 151.54 307.45 153.66 307.45C155.91 307.45 158.18 306.94 160.49 305.91C162.8 304.88 164.51 303.59 165.64 302.03L166.39 303.53C165.14 305.84 163.19 307.76 160.54 309.28C157.89 310.81 155 311.57 151.89 311.57L151.88 311.56ZM142.25 279C143.12 276.44 144.96 274.54 147.77 273.29C150.58 272.04 153.6 271.42 156.85 271.42C161.09 271.42 164.3 272.51 166.49 274.7C168.67 276.88 169.76 280.28 169.76 284.9V304.83C169.76 306.27 170.45 307.01 171.82 307.08L175.84 307.45V310.16C175.4 310.35 174.54 310.6 173.27 310.91C171.99 311.22 170.85 311.38 169.86 311.38C168.11 311.38 166.77 310.83 165.84 309.74C164.91 308.65 164.34 307.2 164.16 305.39V286.21C164.16 282.41 163.46 279.75 162.06 278.26C160.66 276.76 158.43 276.01 155.37 276.01C153.19 276.01 151.11 276.35 149.15 277.04C147.19 277.73 145.36 278.88 143.68 280.5L142.28 279H142.25Z" fill="#11530C"/>
    <path d="M190.33 256.92C190.33 255.74 189.71 255.05 188.46 254.86L183.22 254.11V251.58C185.09 251.02 187.07 250.58 189.16 250.27C191.25 249.96 193.23 249.77 195.1 249.71L195.94 250.55V306.31C196.94 306.81 198.06 307.26 199.31 307.67C200.56 308.08 202.05 308.28 203.8 308.28C208.04 308.28 211.28 306.95 213.53 304.3C215.77 301.65 216.93 297.39 216.99 291.53C217.11 285.6 216.13 281.46 214.04 279.09C211.95 276.72 209.16 275.53 205.67 275.53C203.3 275.53 201.21 275.98 199.4 276.89C197.59 277.8 195.97 279.03 194.53 280.59L194.34 277.97C195.77 276.1 197.55 274.51 199.67 273.2C201.79 271.89 204.47 271.23 207.72 271.23C210.65 271.23 213.27 271.86 215.58 273.1C217.89 274.35 219.73 276.33 221.1 279.04C222.47 281.75 223.16 285.32 223.16 289.75C223.16 296.42 221.48 301.76 218.11 305.75C214.74 309.74 209.81 311.74 203.33 311.74C200.46 311.74 197.86 311.41 195.52 310.76C193.18 310.11 191.45 309.56 190.33 309.12V256.91V256.92Z" fill="#11530C"/>
    <path d="M248.53 304.91C248.53 306.22 249.18 306.97 250.49 307.16L254.79 307.81V310.8H236.64V307.81L240.94 307.16C242.25 306.97 242.9 306.25 242.9 305.01V278.63C242.9 277.32 242.27 276.6 241.03 276.48L236.07 275.92V273.11C237.88 272.49 239.81 272.05 241.87 271.8C243.93 271.55 245.86 271.4 247.67 271.33L248.51 272.26V304.91H248.53ZM249.28 260.85C249.28 262.16 248.86 263.24 248.02 264.08C247.18 264.92 246.1 265.34 244.79 265.34C243.48 265.34 242.41 264.92 241.56 264.08C240.71 263.24 240.3 262.16 240.3 260.85C240.3 259.54 240.72 258.46 241.56 257.62C242.4 256.78 243.48 256.36 244.79 256.36C246.1 256.36 247.18 256.78 248.02 257.62C248.86 258.46 249.28 259.54 249.28 260.85Z" fill="#11530C"/>
    <path d="M277.81 305.01C277.81 306.26 278.43 306.98 279.68 307.16L284.92 307.91V310.81H264.99V307.82L270.23 307.17C271.54 306.98 272.19 306.3 272.19 305.11V256.93C272.19 255.75 271.53 255.06 270.23 254.87L264.8 254.12V251.59C266.61 250.97 268.64 250.51 270.88 250.23C273.12 249.95 275.12 249.78 276.87 249.72L277.81 250.65V305.01Z" fill="#11530C"/>
    <path d="M307.94 304.91C307.94 306.22 308.59 306.97 309.9 307.16L314.2 307.81V310.8H296.05V307.81L300.35 307.16C301.66 306.97 302.31 306.25 302.31 305.01V278.63C302.31 277.32 301.68 276.6 300.44 276.48L295.48 275.92V273.11C297.29 272.49 299.22 272.05 301.28 271.8C303.34 271.55 305.27 271.4 307.08 271.33L307.92 272.26V304.91H307.94ZM308.69 260.85C308.69 262.16 308.27 263.24 307.42 264.08C306.58 264.92 305.5 265.34 304.19 265.34C302.88 265.34 301.81 264.92 300.96 264.08C300.11 263.24 299.7 262.16 299.7 260.85C299.7 259.54 300.12 258.46 300.96 257.62C301.8 256.78 302.88 256.36 304.19 256.36C305.5 256.36 306.58 256.78 307.42 257.62C308.26 258.46 308.69 259.54 308.69 260.85Z" fill="#11530C"/>
    <path d="M330.95 276.57L324.87 275.92V273.11L329.17 272.55C329.79 272.43 330.28 272.22 330.62 271.94C330.96 271.66 331.17 271.24 331.23 270.68L333.29 260.86H336.66V272.18H350.04V276.3H336.66V299.5C336.66 302.56 337.19 304.58 338.25 305.58C339.31 306.58 340.74 307.08 342.55 307.08C344.17 307.08 345.62 306.78 346.9 306.19C348.18 305.6 349.25 304.8 350.13 303.81L352.09 305.49C351.09 307.42 349.6 308.92 347.6 309.98C345.6 311.04 343.42 311.57 341.05 311.57C339.37 311.57 337.74 311.3 336.19 310.77C334.63 310.24 333.37 309.26 332.4 307.82C331.43 306.38 330.95 304.36 330.95 301.74V276.57Z" fill="#11530C"/>
    <path d="M373.33 311.56C370.33 311.56 367.79 310.78 365.7 309.22C363.61 307.66 362.56 305.36 362.56 302.3C362.56 299.56 363.34 297.47 364.9 296.03C366.46 294.59 368.41 293.57 370.75 292.94C373.09 292.31 375.35 291.91 377.53 291.72L386.79 290.88V294.16L378.18 295C375.25 295.25 372.94 295.87 371.26 296.87C369.58 297.87 368.73 299.52 368.73 301.83C368.73 303.58 369.26 304.95 370.32 305.95C371.38 306.95 372.97 307.45 375.09 307.45C377.34 307.45 379.61 306.94 381.92 305.91C384.23 304.88 385.94 303.59 387.06 302.03L387.81 303.53C386.56 305.84 384.61 307.76 381.96 309.28C379.31 310.81 376.42 311.57 373.31 311.57L373.33 311.56ZM363.69 279C364.56 276.44 366.4 274.54 369.21 273.29C372.02 272.04 375.04 271.42 378.28 271.42C382.52 271.42 385.73 272.51 387.92 274.7C390.11 276.89 391.2 280.28 391.2 284.9V304.83C391.2 306.27 391.89 307.01 393.26 307.08L397.28 307.45V310.16C396.84 310.35 395.98 310.6 394.71 310.91C393.43 311.22 392.29 311.38 391.29 311.38C389.54 311.38 388.2 310.83 387.27 309.74C386.34 308.65 385.77 307.2 385.59 305.39V286.21C385.59 282.41 384.89 279.75 383.49 278.26C382.09 276.76 379.86 276.01 376.8 276.01C374.62 276.01 372.54 276.35 370.58 277.04C368.62 277.73 366.79 278.88 365.11 280.5L363.71 279H363.69Z" fill="#11530C"/>
    <path d="M424.51 311.56C421.83 311.56 419.32 310.92 416.98 309.64C414.64 308.36 412.77 306.34 411.37 303.56C409.97 300.79 409.26 297.15 409.26 292.66C409.26 287.73 410.1 283.7 411.79 280.54C413.47 277.39 415.81 275.05 418.81 273.52C421.8 271.99 425.2 271.23 429.01 271.23C431.19 271.23 433.19 271.42 435 271.79C436.81 272.16 438.21 272.57 439.21 273.01L437.53 277.59C436.9 276.9 435.72 276.26 433.97 275.67C432.22 275.08 430.29 274.78 428.17 274.78C425.86 274.78 423.74 275.28 421.81 276.28C419.88 277.28 418.33 279.01 417.18 281.47C416.03 283.93 415.45 287.32 415.45 291.62C415.45 295.92 415.98 298.92 417.04 301.16C418.1 303.4 419.49 304.97 421.2 305.84C422.92 306.72 424.74 307.15 426.67 307.15C428.85 307.15 430.8 306.74 432.52 305.93C434.24 305.12 435.78 304.06 437.15 302.75L438.08 304.34C436.83 306.15 435.09 307.8 432.84 309.3C430.59 310.8 427.82 311.55 424.51 311.55V311.56ZM442.1 250.65V304.82C442.1 305.63 442.29 306.19 442.66 306.5C443.03 306.81 443.53 307 444.16 307.06L448.28 307.43V310.14C447.53 310.39 446.58 310.65 445.43 310.93C444.27 311.21 443.23 311.35 442.3 311.35C440.24 311.35 438.79 310.68 437.95 309.34C437.11 308 436.62 306.52 436.5 304.9V256.9C436.5 255.72 435.87 255.03 434.63 254.84L429.2 254.09V251.56C431.01 250.94 433.04 250.48 435.28 250.2C437.53 249.92 439.52 249.75 441.27 249.69L442.11 250.62L442.1 250.65Z" fill="#11530C"/>
    <path d="M460.71 291.72C460.71 286.98 461.54 283.11 463.19 280.12C464.84 277.12 467.04 274.9 469.79 273.43C472.53 271.96 475.56 271.23 478.87 271.23C482.99 271.23 486.27 272.11 488.74 273.85C491.2 275.6 493 278 494.12 281.05C495.24 284.11 495.8 287.57 495.8 291.44C495.8 296.06 494.97 299.88 493.32 302.9C491.67 305.92 489.47 308.16 486.72 309.59C483.97 311.02 480.92 311.74 477.55 311.74C473.5 311.74 470.24 310.87 467.77 309.12C465.31 307.37 463.51 304.99 462.39 301.96C461.27 298.94 460.71 295.52 460.71 291.72ZM489.44 292C489.44 288.7 489.1 285.73 488.41 283.11C487.72 280.49 486.55 278.43 484.9 276.93C483.25 275.43 480.92 274.69 477.93 274.69C474.19 274.69 471.43 276.02 469.65 278.67C467.87 281.32 466.98 285.45 466.98 291.07C466.98 294.31 467.32 297.24 468.01 299.86C468.7 302.48 469.88 304.54 471.57 306.03C473.26 307.52 475.59 308.28 478.59 308.28C482.27 308.28 485 306.97 486.78 304.35C488.56 301.73 489.45 297.61 489.45 292H489.44Z" fill="#11530C"/>
    <path d="M521.06 280.12V305.01C521.06 306.32 521.74 307.04 523.12 307.16L530.33 307.91V310.81H509.19V307.82L513.49 307.17C514.8 306.98 515.46 306.26 515.46 305.02V278.92C515.46 277.49 514.81 276.67 513.49 276.49L508.63 275.93V273.12C510.31 272.62 512.12 272.22 514.06 271.9C515.99 271.59 517.8 271.4 519.49 271.34L520.33 272.27L521.08 280.13L521.06 280.12ZM519.75 280.21C520.44 279.03 521.53 277.73 523.03 276.33C524.53 274.93 526.27 273.73 528.27 272.73C530.27 271.73 532.26 271.23 534.26 271.23C534.94 271.23 535.69 271.31 536.5 271.46C537.31 271.61 538.03 271.85 538.65 272.16C538.78 274.03 538.76 276.11 538.6 278.38C538.44 280.66 538.18 282.7 537.8 284.51H534.9L533.96 278.8C533.83 278.05 533.6 277.52 533.26 277.21C532.92 276.9 532.43 276.74 531.81 276.74C529.69 276.74 527.58 277.22 525.49 278.19C523.4 279.16 521.51 280.73 519.83 282.91L519.74 280.2L519.75 280.21Z" fill="#11530C"/>
    <path d="M550.16 292.1C550.16 285.61 551.81 280.52 555.12 276.8C558.42 273.09 562.73 271.23 568.03 271.23C571.83 271.23 575.08 272.32 577.76 274.51C580.44 276.69 581.78 280.09 581.78 284.71C581.78 285.27 581.76 285.99 581.73 286.86C581.7 287.73 581.62 288.51 581.5 289.2H554.46V285.92H575.7C575.76 285.61 575.81 285.33 575.84 285.08C575.87 284.83 575.89 284.55 575.89 284.24C575.89 281.37 575.1 279.06 573.5 277.32C571.91 275.57 569.71 274.7 566.9 274.7C563.66 274.7 561.07 275.98 559.13 278.54C557.2 281.1 556.23 285.12 556.23 290.61C556.23 294.91 556.81 298.3 557.96 300.76C559.11 303.22 560.61 304.97 562.45 306C564.29 307.03 566.27 307.54 568.39 307.54C570.76 307.54 572.91 306.98 574.84 305.86C576.77 304.74 578.27 303.24 579.33 301.37L581.67 302.59C580.86 305.27 579.18 307.47 576.62 309.19C574.06 310.9 570.85 311.76 566.98 311.76C563.11 311.76 560.12 310.9 557.62 309.19C555.13 307.47 553.25 305.14 552.01 302.17C550.76 299.21 550.14 295.86 550.14 292.11L550.16 292.1Z" fill="#11530C"/>
    <path d="M596.37 308.84C596.12 306.97 596.03 305.16 596.09 303.41C596.15 301.66 596.28 300.07 596.46 298.64H599.64L600.95 303.79C601.26 305.16 601.82 306.1 602.63 306.6C603.32 307.04 604.33 307.47 605.67 307.91C607.01 308.35 608.55 308.56 610.3 308.56C612.92 308.56 614.9 307.98 616.24 306.83C617.58 305.68 618.25 304.1 618.25 302.11C618.25 300.55 617.86 299.3 617.08 298.37C616.3 297.43 615.13 296.59 613.57 295.84C612.01 295.09 610.05 294.28 607.68 293.41C604.56 292.16 601.99 290.78 599.96 289.25C597.93 287.72 596.92 285.37 596.92 282.18C596.92 278.44 598.26 275.68 600.94 273.9C603.62 272.12 606.87 271.23 610.67 271.23C612.6 271.23 614.57 271.45 616.56 271.88C618.56 272.32 620.21 272.82 621.52 273.38C621.58 275.06 621.55 276.72 621.43 278.34C621.3 279.96 621.09 281.58 620.78 283.2H617.78L616.75 278.52C616.62 277.9 616.44 277.37 616.19 276.93C615.94 276.5 615.47 276.09 614.79 275.72C614.35 275.41 613.72 275.13 612.87 274.88C612.02 274.63 610.98 274.47 609.73 274.41C607.61 274.29 605.82 274.72 604.35 275.72C602.88 276.72 602.15 278.31 602.15 280.49C602.15 282.11 602.6 283.41 603.51 284.37C604.41 285.34 605.57 286.12 606.97 286.71C608.37 287.3 609.83 287.88 611.32 288.44C613.38 289.19 615.33 290.06 617.17 291.06C619.01 292.06 620.52 293.31 621.71 294.8C622.9 296.3 623.49 298.23 623.49 300.6C623.49 304.09 622.16 306.82 619.51 308.79C616.86 310.75 613.35 311.74 608.99 311.74C606.37 311.74 603.95 311.41 601.74 310.76C599.53 310.11 597.73 309.47 596.36 308.84H596.37Z" fill="#11530C"/>
    <path d="M94.88 103.71C136.34 86.35 139.46 29.43 100.85 7.30002C92.54 2.45002 83.45 0.0100098 73.58 0.0100098H0V47.4H26.66V25.7H69.12C86.02 25.25 101.47 37.29 100.97 54.83C101.36 69.09 90.81 82.58 76.04 82.23H26.66V60.55H0V172.86H26.66V107.92H66.13L102.7 172.86L135.05 173.1L94.86 103.72L94.88 103.71Z" fill="#CE2B1A"/>
    <path d="M292.91 51.36C289.12 40.84 283.69 31.71 276.62 23.96C269.54 16.23 261.02 10.31 251.06 6.17001C241.11 2.08001 229.96 0 217.6 0H149.95V172.84H217.6C229.96 172.84 241.14 170.76 251.18 166.65C261.22 162.54 269.73 156.65 276.72 149.01C283.73 141.35 289.12 132.22 292.91 121.59C296.7 110.99 298.58 99.26 298.58 86.4C298.58 73.54 296.7 61.88 292.91 51.34V51.36ZM267.72 111.84C265.25 119.41 261.68 125.8 256.99 130.99C252.29 136.16 246.54 140.17 239.7 142.96C232.86 145.75 225.09 147.16 216.37 147.16H176.62V25.7H216.37C225.09 25.7 232.82 27.11 239.57 29.9C246.32 32.69 252.08 36.72 256.86 42C261.64 47.26 265.26 53.64 267.72 61.13C270.19 68.62 271.42 77.06 271.42 86.43C271.42 95.8 270.19 104.3 267.72 111.86V111.84Z" fill="#11530C"/>
    <path d="M388.42 0.0100098H361.26L294.35 172.85H321.51L337.85 129.87H410.15L426.42 172.85H454.83L388.42 0.0100098ZM347.61 104.2L360.77 69.64C361.74 66.83 362.98 63.34 364.47 59.14C365.94 54.94 367.48 50.46 369.04 45.68C370.6 40.9 372.09 36.37 373.48 32.09C373.72 31.35 373.96 30.68 374.17 29.99C374.23 30.16 374.3 30.31 374.34 30.49C375.83 35.03 377.48 40.01 379.27 45.44C381.09 50.85 382.69 55.81 384.1 60.24C385.48 64.68 386.44 67.49 386.93 68.64L400.41 104.19H347.61V104.2Z" fill="#11530C"/>
    <path d="M624.19 172.83L562.01 87.14L621.72 0.0100098H590.37L547.11 66L501.98 0.0100098H468.16L528.92 84.37L466.93 172.83H498.28L544.13 105.93L590.37 172.83H624.19Z" fill="#11530C"/>
    <path d="M274.32 214.66H0.99025C0.449011 214.66 0.0102539 215.099 0.0102539 215.64V217.94C0.0102539 218.481 0.449011 218.92 0.99025 218.92H274.32C274.861 218.92 275.3 218.481 275.3 217.94V215.64C275.3 215.099 274.861 214.66 274.32 214.66Z" fill="#11530C"/>
    <path d="M623.21 214.66H349.88C349.339 214.66 348.9 215.099 348.9 215.64V217.94C348.9 218.481 349.339 218.92 349.88 218.92H623.21C623.752 218.92 624.19 218.481 624.19 217.94V215.64C624.19 215.099 623.752 214.66 623.21 214.66Z" fill="#11530C"/>
    <path d="M309.87 219.04H288.83V229.88H309.87V219.04Z" fill="#CE1126"/>
    <path d="M335.37 219.04H314.34V229.88H335.37V219.04Z" fill="#CE1126"/>
    <path d="M309.87 203.74H288.83V214.58H309.87V203.74Z" fill="#CE1126"/>
    <path d="M335.37 203.74H314.34V214.58H335.37V203.74Z" fill="#CE1126"/>
    <path d="M304.34 192.82H288.83V199.28H304.34V192.82Z" fill="#002B7F"/>
    <path d="M319.85 192.82H304.34V199.28H319.85V192.82Z" fill="#FCD116"/>
    <path d="M335.37 192.82H319.86V199.28H335.37V192.82Z" fill="#CE1126"/>
    <path d="M309.87 219.04V220.63L292.45 229.89H288.83V226.75L303.35 219.04H309.87Z" fill="#009B48"/>
    <path d="M335.36 203.74V207.11L321.29 214.58H314.34V213.22L332.19 203.74H335.36Z" fill="#009B48"/>
    <path d="M309.87 213.22V214.58H302.92L288.83 207.11V203.74H292.02L309.87 213.22Z" fill="#009B48"/>
    <path d="M335.36 226.75V229.89H331.75L314.34 220.65V219.04H320.85L335.36 226.75Z" fill="#009B48"/>
    <path d="M335.36 214.58V219.04H314.34V229.89H309.87V219.04H288.83V214.58H309.87V203.74H314.34V214.58H335.36Z" fill="white"/>
</svg>
