<svg id="Layer_1" data-name="Layer 1" xmlns="http://www.w3.org/2000/svg" viewBox="0 0 500.05 251"><defs><style>.cls-1,.cls-2{fill:#2e3192;}.cls-1{opacity:0.73;}.cls-2{opacity:0.63;}.cls-3{fill:#fff;opacity:0.26;}</style></defs><title>blog-posts-icon</title><rect class="cls-1" width="500.05" height="251"/><rect class="cls-2" x="19.78" y="21" width="460" height="87.28"/><rect class="cls-3" x="95.27" y="43.41" width="267.74" height="12.97"/><rect class="cls-3" x="95.27" y="65.82" width="74.31" height="5.9"/><rect class="cls-3" x="175.47" y="65.82" width="74.31" height="5.9"/><rect class="cls-3" x="254.5" y="65.82" width="74.31" height="5.9"/><rect class="cls-3" x="95.27" y="74.08" width="80.21" height="5.9"/><rect class="cls-3" x="180.19" y="74.08" width="80.21" height="5.9"/><rect class="cls-3" x="265.11" y="74.08" width="63.69" height="5.9"/><rect class="cls-3" x="95.27" y="120.08" width="172.19" height="9.44"/><rect class="cls-3" x="95.27" y="137.77" width="76.93" height="5.9"/><rect class="cls-3" x="178.31" y="137.77" width="76.93" height="5.9"/><rect class="cls-3" x="260.13" y="137.77" width="76.93" height="5.9"/><rect class="cls-3" x="95.27" y="146.03" width="83.04" height="5.9"/><rect class="cls-3" x="183.19" y="146.03" width="83.04" height="5.9"/><rect class="cls-3" x="271.12" y="146.03" width="65.94" height="5.9"/><rect class="cls-3" x="901.35" y="451.54" width="76.93" height="5.9" transform="translate(1238.41 619.97) rotate(180)"/><rect class="cls-3" x="818.31" y="451.54" width="76.93" height="5.9" transform="translate(1072.33 619.97) rotate(180)"/><rect class="cls-3" x="736.49" y="451.54" width="76.93" height="5.9" transform="translate(908.69 619.97) rotate(180)"/><rect class="cls-3" x="895.24" y="443.28" width="83.04" height="5.9" transform="translate(1232.3 603.46) rotate(180)"/><rect class="cls-3" x="807.32" y="443.28" width="83.04" height="5.9" transform="translate(1056.45 603.46) rotate(180)"/><rect class="cls-3" x="736.49" y="443.28" width="65.94" height="5.9" transform="translate(897.7 603.46) rotate(180)"/><rect class="cls-3" x="95.27" y="179.05" width="172.19" height="9.44"/><rect class="cls-3" x="95.27" y="196.74" width="76.93" height="5.9"/><rect class="cls-3" x="178.31" y="196.74" width="76.93" height="5.9"/><rect class="cls-3" x="260.13" y="196.74" width="76.93" height="5.9"/><rect class="cls-3" x="95.27" y="205" width="83.04" height="5.9"/><rect class="cls-3" x="183.19" y="205" width="83.04" height="5.9"/><rect class="cls-3" x="271.12" y="205" width="65.94" height="5.9"/><rect class="cls-3" x="901.35" y="510.51" width="76.93" height="5.9" transform="translate(1238.41 737.92) rotate(180)"/><rect class="cls-3" x="818.31" y="510.51" width="76.93" height="5.9" transform="translate(1072.33 737.92) rotate(180)"/><rect class="cls-3" x="736.49" y="510.51" width="76.93" height="5.9" transform="translate(908.69 737.92) rotate(180)"/><rect class="cls-3" x="895.24" y="502.26" width="83.04" height="5.9" transform="translate(1232.3 721.41) rotate(180)"/><rect class="cls-3" x="807.32" y="502.26" width="83.04" height="5.9" transform="translate(1056.45 721.41) rotate(180)"/><rect class="cls-3" x="736.49" y="502.26" width="65.94" height="5.9" transform="translate(897.7 721.41) rotate(180)"/><rect class="cls-2" x="363.01" y="116.54" width="116.77" height="110.87"/><rect class="cls-3" x="372.19" y="123.62" width="99.71" height="9.44"/><rect class="cls-3" x="372.19" y="141.31" width="31.73" height="5.9"/><rect class="cls-3" x="406.44" y="141.31" width="31.73" height="5.9"/><rect class="cls-3" x="440.18" y="141.31" width="31.73" height="5.9"/><rect class="cls-3" x="372.19" y="149.56" width="34.24" height="5.9"/><rect class="cls-3" x="408.45" y="149.56" width="34.24" height="5.9"/><rect class="cls-3" x="444.71" y="149.56" width="27.19" height="5.9"/><rect class="cls-3" x="372.19" y="168.44" width="99.71" height="9.44"/><rect class="cls-3" x="372.19" y="186.13" width="31.73" height="5.9"/><rect class="cls-3" x="406.44" y="186.13" width="31.73" height="5.9"/><rect class="cls-3" x="440.18" y="186.13" width="31.73" height="5.9"/><rect class="cls-3" x="372.19" y="194.38" width="34.24" height="5.9"/><rect class="cls-3" x="408.45" y="194.38" width="34.24" height="5.9"/><rect class="cls-3" x="444.71" y="194.38" width="27.19" height="5.9"/></svg>