<?xml version="1.0" encoding="UTF-8"?>
<!DOCTYPE svg PUBLIC "-//W3C//DTD SVG 1.0//EN" "http://www.w3.org/TR/2001/REC-SVG-20010904/DTD/svg10.dtd">
<!-- Creator: CorelDRAW X8 -->
<svg xmlns="http://www.w3.org/2000/svg" xml:space="preserve" width="800px" height="300px" version="1.0" style="shape-rendering:geometricPrecision; text-rendering:geometricPrecision; image-rendering:optimizeQuality; fill-rule:evenodd; clip-rule:evenodd"
viewBox="0 0 800 300"
 xmlns:xlink="http://www.w3.org/1999/xlink">
 <defs>
  <style type="text/css">
   <![CDATA[
    .str0 {stroke:#B2B3B3;stroke-width:2.08347}
    .str1 {stroke:#E31E24;stroke-width:2.08347}
    .fil0 {fill:none}
   ]]>
  </style>
 </defs>
 <g id="Layer_x0020_1">
  <metadata id="CorelCorpID_0Corel-Layer"/>
  <path class="fil0 str0" d="M0 20l800 0"/>
  <path class="fil0 str0" d="M0 40l800 0"/>
  <path class="fil0 str0" d="M0 60l800 0"/>
  <path class="fil0 str0" d="M0 80l800 0"/>
  <path class="fil0 str0" d="M0 100l800 0"/>
  <path class="fil0 str0" d="M0 120l800 0"/>
  <path class="fil0 str0" d="M0 140l800 0"/>
  <path class="fil0 str0" d="M0 160l800 0"/>
  <path class="fil0 str0" d="M0 180l800 0"/>
  <path class="fil0 str0" d="M0 200l800 0"/>
  <path class="fil0 str0" d="M0 220l800 0"/>
  <path class="fil0 str0" d="M0 240l800 0"/>
  <path class="fil0 str0" d="M0 260l800 0"/>
  <path class="fil0 str0" d="M0 280l800 0"/>
  <path class="fil0 str1" d="M51 0l0 300"/>
 </g>
</svg>
