<?xml version="1.0" encoding="UTF-8"?>
<!DOCTYPE svg PUBLIC "-//W3C//DTD SVG 1.0//EN" "http://www.w3.org/TR/2001/REC-SVG-20010904/DTD/svg10.dtd">
<!-- Creator: CorelDRAW X8 -->
<svg xmlns="http://www.w3.org/2000/svg" xml:space="preserve" width="800px" height="300px" version="1.0" style="shape-rendering:geometricPrecision; text-rendering:geometricPrecision; image-rendering:optimizeQuality; fill-rule:evenodd; clip-rule:evenodd"
viewBox="0 0 800 300"
 xmlns:xlink="http://www.w3.org/1999/xlink">
 <defs>
  <style type="text/css">
   <![CDATA[
    .str0 {stroke:#B2B3B3;stroke-width:2.08347}
    .str1 {stroke:#E31E24;stroke-width:2.08347}
    .fil0 {fill:none}
   ]]>
  </style>
 </defs>
 <g id="Layer_x0020_1">
  <metadata id="CorelCorpID_0Corel-Layer"/>
  <path class="fil0 str0" d="M0 20l800 0"/>
  <path class="fil0 str0" d="M0 40l800 0"/>
  <path class="fil0 str0" d="M0 60l800 0"/>
  <path class="fil0 str0" d="M0 80l800 0"/>
  <path class="fil0 str0" d="M0 100l800 0"/>
  <path class="fil0 str0" d="M0 120l800 0"/>
  <path class="fil0 str0" d="M0 140l800 0"/>
  <path class="fil0 str0" d="M0 160l800 0"/>
  <path class="fil0 str0" d="M0 180l800 0"/>
  <path class="fil0 str0" d="M0 200l800 0"/>
  <path class="fil0 str0" d="M0 220l800 0"/>
  <path class="fil0 str0" d="M0 240l800 0"/>
  <path class="fil0 str0" d="M0 260l800 0"/>
  <path class="fil0 str0" d="M0 280l800 0"/>
  <path class="fil0 str1" d="M51 0l0 300"/>
  <g id="_2266839150240">
   <g>
    <g>
     <g>
      <path class="fil0 str0" d="M20 300l0 -300"/>
      <path class="fil0 str0" d="M40 300l0 -300"/>
     </g>
     <g>
      <path class="fil0 str0" d="M60 300l0 -300"/>
      <path class="fil0 str0" d="M80 300l0 -300"/>
     </g>
    </g>
    <g>
     <g>
      <path class="fil0 str0" d="M100 300l0 -300"/>
      <path class="fil0 str0" d="M120 300l0 -300"/>
     </g>
     <g>
      <path class="fil0 str0" d="M140 300l0 -300"/>
      <path class="fil0 str0" d="M160 300l0 -300"/>
     </g>
    </g>
   </g>
   <g>
    <g>
     <g>
      <path class="fil0 str0" d="M180 300l0 -300"/>
      <path class="fil0 str0" d="M200 300l0 -300"/>
     </g>
     <g>
      <path class="fil0 str0" d="M220 300l0 -300"/>
      <path class="fil0 str0" d="M240 300l0 -300"/>
     </g>
    </g>
    <g>
     <g>
      <path class="fil0 str0" d="M260 300l0 -300"/>
      <path class="fil0 str0" d="M280 300l0 -300"/>
     </g>
     <g>
      <path class="fil0 str0" d="M300 300l0 -300"/>
      <path class="fil0 str0" d="M320 300l0 -300"/>
     </g>
    </g>
   </g>
  </g>
  <g id="_2266839138400">
   <g>
    <g>
     <g>
      <path class="fil0 str0" d="M340 300l0 -300"/>
      <path class="fil0 str0" d="M360 300l0 -300"/>
     </g>
     <g>
      <path class="fil0 str0" d="M380 300l0 -300"/>
      <path class="fil0 str0" d="M400 300l0 -300"/>
     </g>
    </g>
    <g>
     <g>
      <path class="fil0 str0" d="M420 300l0 -300"/>
      <path class="fil0 str0" d="M440 300l0 -300"/>
     </g>
     <g>
      <path class="fil0 str0" d="M460 300l0 -300"/>
      <path class="fil0 str0" d="M480 300l0 -300"/>
     </g>
    </g>
   </g>
   <g>
    <g>
     <g>
      <path class="fil0 str0" d="M500 300l0 -300"/>
      <path class="fil0 str0" d="M520 300l0 -300"/>
     </g>
     <g>
      <path class="fil0 str0" d="M540 300l0 -300"/>
      <path class="fil0 str0" d="M560 300l0 -300"/>
     </g>
    </g>
    <g>
     <g>
      <path class="fil0 str0" d="M580 300l0 -300"/>
      <path class="fil0 str0" d="M600 300l0 -300"/>
     </g>
     <g>
      <path class="fil0 str0" d="M620 300l0 -300"/>
      <path class="fil0 str0" d="M640 300l0 -300"/>
     </g>
    </g>
   </g>
  </g>
  <g id="_2266839137280">
   <g>
    <path class="fil0 str0" d="M660 300l0 -300"/>
    <path class="fil0 str0" d="M680 300l0 -300"/>
   </g>
   <g>
    <path class="fil0 str0" d="M700 300l0 -300"/>
    <path class="fil0 str0" d="M720 300l0 -300"/>
   </g>
  </g>
  <g id="_2266839133376">
   <g>
    <path class="fil0 str0" d="M740 300l0 -300"/>
    <path class="fil0 str0" d="M760 300l0 -300"/>
   </g>
   <g>
    <path class="fil0 str0" d="M780 300l0 -300"/>
    <path class="fil0 str0" d="M800 300l0 -300"/>
   </g>
  </g>
 </g>
</svg>
