<svg id="Layer_1" data-name="Layer 1" xmlns="http://www.w3.org/2000/svg" viewBox="0 0 500.05 251"><defs><style>.cls-1,.cls-2,.cls-3{fill:#2e3192;}.cls-1{opacity:0.73;}.cls-2{opacity:0.63;}.cls-4{fill:#fff;opacity:0.26;}</style></defs><title>projects-icon</title><rect class="cls-1" width="500.05" height="251"/><rect class="cls-2" x="24.04" y="45.11" width="451.11" height="85.59"/><circle class="cls-3" cx="93.81" cy="183.19" r="36.23"/><polygon class="cls-3" points="280.94 149.5 239.84 149.5 219.29 185.1 239.84 220.69 280.94 220.69 301.49 185.1 280.94 149.5"/><polygon class="cls-3" points="415.45 146.28 427.82 171.35 455.48 175.37 435.46 194.88 440.19 222.43 415.45 209.42 390.71 222.43 395.43 194.88 375.42 175.37 403.08 171.35 415.45 146.28"/><rect class="cls-3" x="24.04" y="23.13" width="451.11" height="21.98"/><rect class="cls-4" x="307.42" y="31.23" width="27.76" height="6.94"/><rect class="cls-4" x="340.97" y="31.23" width="27.76" height="6.94"/><rect class="cls-4" x="374.51" y="31.23" width="27.76" height="6.94"/><rect class="cls-4" x="408.05" y="31.23" width="27.76" height="6.94"/></svg>